<svg width="120" height="120" viewBox="0 0 120 120" fill="none" xmlns="http://www.w3.org/2000/svg">
<path d="M64.4973 29.2224L63.9797 31.1542L77.5026 34.7777L78.0203 32.8458L64.4973 29.2224Z" fill="#212121"/>
<path d="M48 42H54V40H48V42Z" fill="#212121"/>
<path d="M66 42H72V40H66V42Z" fill="#212121"/>
<path d="M55.4453 53.168C55.7439 52.9689 56.1263 52.9451 56.4472 53.1056L60 54.882L63.5528 53.1056C63.8738 52.9451 64.2561 52.9689 64.5547 53.168L67.5547 55.168L66.4453 56.8321L63.9282 55.154L60.4472 56.8944C60.1657 57.0352 59.8343 57.0352 59.5528 56.8944L56.0719 55.154L53.5547 56.8321L52.4453 55.168L55.4453 53.168Z" fill="#212121"/>
<path d="M42.4974 34.7777L41.9797 32.8458L55.5027 29.2224L56.0203 31.1542L42.4974 34.7777Z" fill="#212121"/>
<path fill-rule="evenodd" clip-rule="evenodd" d="M83.4158 64.8107C88.7416 59.0955 92 51.4283 92 43C92 25.3269 77.6731 11 60 11C42.3269 11 28 25.3269 28 43C28 51.5604 31.3614 59.3357 36.8362 65.0781C36.7517 64.9894 36.6677 64.9003 36.5842 64.8107C20.7698 73.2081 10 89.8463 10 109H14C14 90.8898 24.4656 75.224 39.6788 67.7206C39.6787 67.7206 39.6788 67.7206 39.6788 67.7206C45.2053 72.2689 52.2837 75 60 75C67.732 75 74.8235 72.2577 80.355 67.6928C80.3437 67.702 80.3325 67.7113 80.3212 67.7206C95.5344 75.224 106 90.8898 106 109H110C110 89.8463 99.2301 73.2081 83.4158 64.8107ZM60 71C75.464 71 88 58.464 88 43C88 27.536 75.464 15 60 15C44.536 15 32 27.536 32 43C32 58.464 44.536 71 60 71Z" fill="#212121"/>
</svg>
