<svg width="120" height="120" viewBox="0 0 120 120" fill="none" xmlns="http://www.w3.org/2000/svg">
<path d="M42 30C42.704 30.7101 42.7038 30.7104 42.7036 30.7106L42.7054 30.7089L42.7236 30.6914C42.7414 30.6745 42.7701 30.6476 42.8093 30.612C42.8879 30.5408 43.0081 30.4354 43.1659 30.307C43.4823 30.0497 43.9454 29.7038 44.5232 29.3581C45.6895 28.6601 47.2595 28 49 28C50.7404 28 52.3104 28.6601 53.4768 29.3581C54.0545 29.7038 54.5177 30.0497 54.8341 30.307C54.9919 30.4354 55.1121 30.5408 55.1906 30.612C55.2298 30.6476 55.2586 30.6745 55.2763 30.6914L55.2946 30.7089L55.2963 30.7106C55.2961 30.7104 55.2959 30.7101 56 30C56.704 29.2899 56.7032 29.2891 56.703 29.2888L56.7017 29.2875L56.6981 29.284L56.6878 29.2739L56.6537 29.2413C56.6252 29.2142 56.585 29.1766 56.5338 29.1302C56.4313 29.0373 56.2841 28.9084 56.0961 28.7555C55.721 28.4503 55.1793 28.0462 54.5038 27.6419C53.1636 26.8399 51.2336 26 49 26C46.7663 26 44.8363 26.8399 43.4961 27.6419C42.8207 28.0462 42.279 28.4503 41.9038 28.7555C41.7159 28.9084 41.5686 29.0373 41.4662 29.1302C41.4149 29.1766 41.3747 29.2142 41.3462 29.2413L41.3122 29.2739L41.3018 29.284L41.2983 29.2875L41.2964 29.2894C41.2961 29.2896 41.2959 29.2899 42 30Z" fill="#212121"/>
<path d="M63 33C63.5514 33.8342 63.5512 33.8344 63.5509 33.8345L63.5699 33.8224C63.5874 33.8113 63.6159 33.7935 63.655 33.7699C63.7331 33.7227 63.8533 33.6524 64.0116 33.5666C64.3284 33.3947 64.7953 33.1622 65.3802 32.9288C66.5552 32.4601 68.1764 32 70 32C71.8236 32 73.4448 32.4601 74.6197 32.9288C75.2047 33.1622 75.6715 33.3947 75.9884 33.5666C76.1466 33.6524 76.2669 33.7227 76.345 33.7699C76.3841 33.7935 76.4126 33.8113 76.43 33.8224L76.449 33.8345C76.4488 33.8344 76.4486 33.8342 77 33C77.5514 32.1658 77.5505 32.1652 77.5503 32.165L77.5489 32.1641L77.5452 32.1617L77.5346 32.1548L77.5 32.1327C77.4712 32.1144 77.4308 32.0893 77.3794 32.0582C77.2766 31.9961 77.1293 31.9101 76.9418 31.8084C76.5671 31.6053 76.0292 31.3378 75.3609 31.0712C74.0293 30.5399 72.1506 30 70 30C67.8494 30 65.9707 30.5399 64.6391 31.0712C63.9708 31.3378 63.4328 31.6053 63.0582 31.8084C62.8706 31.9101 62.7234 31.9961 62.6206 32.0582C62.5691 32.0893 62.5288 32.1144 62.4999 32.1327L62.4654 32.1548L62.4548 32.1617L62.4511 32.1641L62.4491 32.1654C62.4488 32.1656 62.4486 32.1658 63 33Z" fill="#212121"/>
<path fill-rule="evenodd" clip-rule="evenodd" d="M54 37.5C54 39.433 52.6569 41 51 41C49.3431 41 48 39.433 48 37.5C48 35.567 49.3431 34 51 34C52.6569 34 54 35.567 54 37.5ZM52 37C52 37.5523 51.5523 38 51 38C50.4477 38 50 37.5523 50 37C50 36.4477 50.4477 36 51 36C51.5523 36 52 36.4477 52 37Z" fill="#212121"/>
<path d="M53.2958 52.1029C53.2961 52.1028 53.2964 52.1027 52.9797 51.1542C52.663 50.2057 52.6633 50.2056 52.6636 50.2055L52.6658 50.2047L52.67 50.2033L52.6821 50.1994L52.7211 50.187L52.7655 50.1733C52.7914 50.1655 52.8219 50.1564 52.8569 50.1463C52.9724 50.1129 53.1368 50.068 53.3443 50.0183C53.7587 49.919 54.3476 49.7999 55.0622 49.7153C56.4858 49.5468 58.4403 49.5115 60.5176 50.0681C62.5949 50.6248 64.2699 51.6326 65.4186 52.4903C65.9951 52.9208 66.4455 53.3184 66.7548 53.6116C66.9096 53.7584 67.0296 53.8795 67.1129 53.9661C67.1383 53.9926 67.1604 54.0159 67.1789 54.0358L67.2101 54.0693L67.2377 54.0996L67.2462 54.109L67.2491 54.1123L67.2503 54.1135C67.2505 54.1138 67.2512 54.1146 66.5026 54.7777C65.7541 55.4408 65.7543 55.441 65.7545 55.4412L65.7392 55.4245C65.7253 55.4093 65.7023 55.3848 65.6707 55.3518C65.6074 55.286 65.5095 55.1869 65.3789 55.0631C65.1173 54.8151 64.7265 54.4696 64.2219 54.0928C63.2083 53.336 61.7614 52.472 60 52C58.2385 51.528 56.5534 51.5528 55.2972 51.7015C54.6718 51.7755 54.1607 51.8793 53.8101 51.9633C53.6351 52.0052 53.5008 52.042 53.413 52.0674C53.3692 52.0801 53.337 52.0899 53.3173 52.0961L53.2972 52.1024L53.2958 52.1029Z" fill="#212121"/>
<path fill-rule="evenodd" clip-rule="evenodd" d="M69 42C70.6569 42 72 40.433 72 38.5C72 36.567 70.6569 35 69 35C67.3431 35 66 36.567 66 38.5C66 40.433 67.3431 42 69 42ZM69 39C69.5523 39 70 38.5523 70 38C70 37.4477 69.5523 37 69 37C68.4477 37 68 37.4477 68 38C68 38.5523 68.4477 39 69 39Z" fill="#212121"/>
<path fill-rule="evenodd" clip-rule="evenodd" d="M83.4158 64.8107C88.7416 59.0955 92 51.4283 92 43C92 25.3269 77.6731 11 60 11C42.3269 11 28 25.3269 28 43C28 51.5604 31.3614 59.3357 36.8362 65.0781C36.7517 64.9894 36.6677 64.9003 36.5842 64.8107C20.7698 73.2081 10 89.8463 10 109H14C14 90.8898 24.4656 75.224 39.6788 67.7206C39.6787 67.7206 39.6788 67.7206 39.6788 67.7206C45.2053 72.2689 52.2837 75 60 75C67.732 75 74.8235 72.2577 80.355 67.6928C80.3437 67.702 80.3325 67.7113 80.3212 67.7206C95.5344 75.224 106 90.8898 106 109H110C110 89.8463 99.2301 73.2081 83.4158 64.8107ZM60 71C75.464 71 88 58.464 88 43C88 27.536 75.464 15 60 15C44.536 15 32 27.536 32 43C32 58.464 44.536 71 60 71Z" fill="#212121"/>
</svg>
