<svg width="18" height="18" viewBox="0 0 18 18" fill="none" xmlns="http://www.w3.org/2000/svg">
<path fill-rule="evenodd" clip-rule="evenodd" d="M5.25 8.25C6.64788 8.25 7.82245 7.29392 8.15549 6H15.75V4.5H8.15549C7.82245 3.20608 6.64788 2.25 5.25 2.25C3.59315 2.25 2.25 3.59315 2.25 5.25C2.25 6.90685 3.59315 8.25 5.25 8.25ZM5.25 6.75C6.07843 6.75 6.75 6.07843 6.75 5.25C6.75 4.42157 6.07843 3.75 5.25 3.75C4.42157 3.75 3.75 4.42157 3.75 5.25C3.75 6.07843 4.42157 6.75 5.25 6.75Z" fill="#212121"/>
<path fill-rule="evenodd" clip-rule="evenodd" d="M9.84451 12C10.1775 10.7061 11.3521 9.75 12.75 9.75C14.4069 9.75 15.75 11.0931 15.75 12.75C15.75 14.4069 14.4069 15.75 12.75 15.75C11.3521 15.75 10.1775 14.7939 9.84451 13.5H2.25V12H9.84451ZM14.25 12.75C14.25 13.5784 13.5784 14.25 12.75 14.25C11.9216 14.25 11.25 13.5784 11.25 12.75C11.25 11.9216 11.9216 11.25 12.75 11.25C13.5784 11.25 14.25 11.9216 14.25 12.75Z" fill="#212121"/>
</svg>
