<svg width="24" height="24" viewBox="0 0 24 24" fill="none" xmlns="http://www.w3.org/2000/svg">
<path fill-rule="evenodd" clip-rule="evenodd" d="M3.91177 4.42076C6.26062 2.37761 9.8699 2.55782 11.9895 4.83407L12 4.8453L12.0104 4.83407C14.1301 2.55782 17.7393 2.37761 20.0882 4.42076C22.4567 6.48105 22.6537 10.0264 20.5158 12.3223L12.7318 20.6815C12.5427 20.8846 12.2776 21 12 21C11.7224 21 11.4573 20.8846 11.2681 20.6815L3.48415 12.3223C1.34626 10.0264 1.54323 6.48105 3.91177 4.42076ZM10.5259 6.19703C9.14536 4.71453 6.76456 4.59003 5.22438 5.92976C3.7039 7.25235 3.5856 9.49644 4.94783 10.9593L12 18.5326L19.0521 10.9593C20.4144 9.49644 20.2961 7.25235 18.7756 5.92976C17.2354 4.59003 14.8546 4.71453 13.4741 6.19703L12.7318 6.99417C12.5427 7.19731 12.2776 7.31269 12 7.31269C11.7224 7.31269 11.4573 7.19731 11.2681 6.99417L10.5259 6.19703Z" fill="#212121"/>
</svg>
