<svg width="32" height="32" viewBox="0 0 32 32" fill="none" xmlns="http://www.w3.org/2000/svg">
<path fill-rule="evenodd" clip-rule="evenodd" d="M5.21574 5.89435C8.34753 3.17015 13.1599 3.41042 15.9861 6.44543L16 6.46039L16.0139 6.44543C18.8401 3.41042 23.6525 3.17015 26.7843 5.89435C29.9424 8.6414 30.205 13.3686 27.3545 16.4297L16.9758 27.5753C16.7236 27.8461 16.3701 28 16 28C15.6299 28 15.2765 27.8461 15.0242 27.5753L4.64558 16.4297C1.79505 13.3686 2.05767 8.6414 5.21574 5.89435ZM14.0345 8.26271C12.1939 6.28604 9.01945 6.12003 6.96588 7.90634C4.93858 9.6698 4.78084 12.6619 6.59714 14.6124L16 24.7101L25.4029 14.6124C27.2192 12.6619 27.0615 9.6698 25.0342 7.90634C22.9806 6.12003 19.8062 6.28604 17.9655 8.26271L16.9758 9.32556C16.7236 9.59642 16.3701 9.75025 16 9.75025C15.6299 9.75025 15.2765 9.59642 15.0242 9.32556L14.0345 8.26271Z" fill="#212121"/>
</svg>
