<svg width="32" height="32" viewBox="0 0 32 32" fill="none" xmlns="http://www.w3.org/2000/svg">
<path fill-rule="evenodd" clip-rule="evenodd" d="M22.6667 9.33317C22.6667 13.0151 19.6819 15.9998 16 15.9998C12.3181 15.9998 9.33332 13.0151 9.33332 9.33317C9.33332 5.65127 12.3181 2.6665 16 2.6665C19.6819 2.6665 22.6667 5.65127 22.6667 9.33317ZM20 9.33317C20 11.5423 18.2091 13.3332 16 13.3332C13.7909 13.3332 12 11.5423 12 9.33317C12 7.12403 13.7909 5.33317 16 5.33317C18.2091 5.33317 20 7.12403 20 9.33317Z" fill="#212121"/>
<path d="M5.99999 29.3332C7.33332 29.3332 7.33332 29.3337 7.33332 29.3343L7.33348 29.3227C7.33368 29.3095 7.33412 29.2867 7.33511 29.255C7.33709 29.1916 7.34124 29.0929 7.34987 28.9639C7.36718 28.7055 7.40235 28.3283 7.47359 27.8723C7.61709 26.9539 7.9016 25.7512 8.45727 24.5658C9.01145 23.3835 9.8179 22.2543 10.9914 21.4198C12.1523 20.5943 13.7517 19.9998 16 19.9998C18.2483 19.9998 19.8477 20.5943 21.0085 21.4198C22.1821 22.2543 22.9885 23.3835 23.5427 24.5658C24.0984 25.7512 24.3829 26.9539 24.5264 27.8723C24.5976 28.3283 24.6328 28.7055 24.6501 28.9639C24.6587 29.0929 24.6629 29.1916 24.6649 29.255C24.6659 29.2867 24.6663 29.3095 24.6665 29.3227L24.6667 29.3343C24.6667 29.3337 24.6667 29.3332 26 29.3332C27.3333 29.3332 27.3333 29.3325 27.3333 29.3318L27.3333 29.3302L27.3333 29.3263L27.3332 29.3155L27.3329 29.2824C27.3325 29.2553 27.3317 29.2182 27.3302 29.1717C27.3273 29.0789 27.3217 28.9484 27.3108 28.7858C27.2891 28.4608 27.2461 28.0048 27.1611 27.4607C26.9921 26.3791 26.6516 24.9152 25.9573 23.4339C25.2614 21.9495 24.1929 20.4121 22.5539 19.2466C20.9023 18.072 18.7517 17.3332 16 17.3332C13.2483 17.3332 11.0977 18.072 9.44604 19.2466C7.80707 20.4121 6.73853 21.9495 6.04271 23.4339C5.34838 24.9152 5.00788 26.3791 4.83889 27.4607C4.75388 28.0048 4.71092 28.4608 4.68917 28.7858C4.67827 28.9484 4.67265 29.0789 4.66975 29.1717C4.6683 29.2182 4.66752 29.2553 4.66711 29.2824L4.66673 29.3155L4.66667 29.3263L4.66666 29.3302V29.3318C4.66666 29.3325 4.66666 29.3332 5.99999 29.3332Z" fill="#212121"/>
</svg>
